<svg width="192" height="192" viewBox="0 0 192 192" fill="none" xmlns="http://www.w3.org/2000/svg">
<g clip-path="url(#clip0_4_38)">
<rect width="192" height="192" rx="96" fill="black"/>
<path d="M60.5459 73.5495C66.7409 58.4825 94.6241 65.2301 113.926 74.525C115.856 75.4545 118.167 75.134 119.717 73.6542L147.101 47.5006C149.205 45.4911 149.164 42.1017 146.842 40.3488C111.318 13.5348 46.5923 22.7628 39.4539 60.9305C34.3601 88.1656 73.4884 105.799 89.3181 111.755C90.3973 112.161 90.9765 110.903 90.0017 110.287C72.3991 99.1666 54.2561 88.8468 60.5459 73.5495Z" fill="#05DFD1"/>
<path d="M60.5459 73.5495C66.7409 58.4825 94.6241 65.2301 113.926 74.525C115.856 75.4545 118.167 75.134 119.717 73.6542L147.101 47.5006C149.205 45.4911 149.164 42.1017 146.842 40.3488C111.318 13.5348 46.5923 22.7628 39.4539 60.9305C34.3601 88.1656 73.4884 105.799 89.3181 111.755C90.3973 112.161 90.9765 110.903 90.0017 110.287C72.3991 99.1666 54.2561 88.8468 60.5459 73.5495Z" fill="url(#paint0_linear_4_38)"/>
<path d="M131.454 118.451C125.259 133.517 97.3759 126.77 78.0744 117.475C76.1441 116.545 73.8326 116.866 72.2832 118.346L44.8987 144.499C42.7946 146.509 42.8362 149.898 45.1584 151.651C80.6815 178.465 145.408 169.237 152.546 131.07C157.64 103.834 118.512 86.2014 102.682 80.2453C101.603 79.8392 101.024 81.0969 101.998 81.7127C119.601 92.8334 137.744 103.153 131.454 118.451Z" fill="#05DFD1"/>
<path d="M131.454 118.451C125.259 133.517 97.3759 126.77 78.0744 117.475C76.1441 116.545 73.8326 116.866 72.2832 118.346L44.8987 144.499C42.7946 146.509 42.8362 149.898 45.1584 151.651C80.6815 178.465 145.408 169.237 152.546 131.07C157.64 103.834 118.512 86.2014 102.682 80.2453C101.603 79.8392 101.024 81.0969 101.998 81.7127C119.601 92.8334 137.744 103.153 131.454 118.451Z" fill="url(#paint1_linear_4_38)"/>
</g>
<defs>
<linearGradient id="paint0_linear_4_38" x1="150.567" y1="44.8352" x2="48.7446" y2="109.986" gradientUnits="userSpaceOnUse">
<stop stop-opacity="0"/>
<stop offset="0.389423" stop-opacity="0.19"/>
<stop offset="0.884615" stop-opacity="0.49"/>
<stop offset="1" stop-opacity="0.36"/>
</linearGradient>
<linearGradient id="paint1_linear_4_38" x1="41.4329" y1="147.165" x2="143.255" y2="82.0143" gradientUnits="userSpaceOnUse">
<stop stop-opacity="0"/>
<stop offset="0.389423" stop-opacity="0.19"/>
<stop offset="0.884615" stop-opacity="0.49"/>
<stop offset="1" stop-opacity="0.36"/>
</linearGradient>
<clipPath id="clip0_4_38">
<rect width="192" height="192" rx="2" fill="white"/>
</clipPath>
</defs>
</svg>
